inDegrees=no
num_controls=7
num_derivatives=13
num_iterations=110
num_multipliers=7
num_parameters=0
num_slacks=7
num_states=26
objective=4.112945
objective_accelerations=0.294468
objective_balance=0.034719
objective_effort=0.341660
objective_height=3.359823
objective_ligament=0.082276
solver_duration=1205.519943
status=Solve_Succeeded
success=true
DataType=double
version=3
OpenSimVersion=4.4-2022-07-23-0e9fedc
endheader
time	/jointset/ground_pelvis/pelvis_tilt/value	/jointset/ground_pelvis/pelvis_tx/value	/jointset/ground_pelvis/pelvis_ty/value	/jointset/hip_l/hip_flexion_l/value	/jointset/hip_l/hip_adduction_l/value	/jointset/hip_l/hip_rotation_l/value	/jointset/back/lumbar_extension/value	/jointset/patellofemoral_l/patellar_flexion_l/value	/jointset/knee_l/knee_flexion_l/value	/jointset/knee_l/knee_adduction_l/value	/jointset/knee_l/knee_rotation_l/value	/jointset/ankle_l/ankle_angle_l/value	/jointset/subtalar_l/subtalar_angle_l/value	/jointset/ground_pelvis/pelvis_tilt/speed	/jointset/ground_pelvis/pelvis_tx/speed	/jointset/ground_pelvis/pelvis_ty/speed	/jointset/hip_l/hip_flexion_l/speed	/jointset/hip_l/hip_adduction_l/speed	/jointset/hip_l/hip_rotation_l/speed	/jointset/back/lumbar_extension/speed	/jointset/patellofemoral_l/patellar_flexion_l/speed	/jointset/knee_l/knee_flexion_l/speed	/jointset/knee_l/knee_adduction_l/speed	/jointset/knee_l/knee_rotation_l/speed	/jointset/ankle_l/ankle_angle_l/speed	/jointset/subtalar_l/subtalar_angle_l/speed	/forceset/tau_hip_flexion_l	/forceset/tau_hip_adduction_l	/forceset/tau_hip_rotation_l	/forceset/tau_knee_flexion_l	/forceset/tau_ankle_angle_l	/forceset/tau_subtalar_angle_l	/forceset/tau_lumbar_extension	lambda_cid13_p0	lambda_cid13_p1	lambda_cid13_p2	lambda_cid13_p3	lambda_cid13_p4	lambda_cid13_p5	lambda_cid14_p0	/jointset/ground_pelvis/pelvis_tilt/accel	/jointset/ground_pelvis/pelvis_tx/accel	/jointset/ground_pelvis/pelvis_ty/accel	/jointset/hip_l/hip_flexion_l/accel	/jointset/hip_l/hip_adduction_l/accel	/jointset/hip_l/hip_rotation_l/accel	/jointset/back/lumbar_extension/accel	/jointset/patellofemoral_l/patellar_flexion_l/accel	/jointset/knee_l/knee_flexion_l/accel	/jointset/knee_l/knee_adduction_l/accel	/jointset/knee_l/knee_rotation_l/accel	/jointset/ankle_l/ankle_angle_l/accel	/jointset/subtalar_l/subtalar_angle_l/accel	gamma_cid13_p0	gamma_cid13_p1	gamma_cid13_p2	gamma_cid13_p3	gamma_cid13_p4	gamma_cid13_p5	gamma_cid14_p0
1.5	-0.3578987160941698	-0.04385024559334275	0.8015509984637544	1.053940595883936	-0.3050966746896128	-0.08400176248542729	-0.3242775643518356	0.5770089926810928	0.5770089926810933	-0.1710049528630958	0.1739269699670137	0.04304552736887354	-0.04177927649741334	0.4975750573328343	0.2097755988154605	0.3413142372471276	-1.762906030519364	0.0570008272290299	-0.5070873732798165	0.5779558024551712	-1.450942478520845	-1.450942478520843	0.0126137846329005	-0.001966359080570808	-0.2591514053274045	0.02236814385930189	-0.2002857869715651	0.02373212754176077	-0.02237599780669745	-0.2043889369899071	0.1318310363182318	0.03602174928990143	0.1942931142120823	2.816685458247794	-19.68411812042227	6.786942184588147	-2.879217193864465	-615.8300142908358	-59.70104401240859	-34.23514823248665	0.4368673748750274	0.485517784047879	-0.2024254321594368	-1.196334741565144	0.3909627344730133	-0.1760884107931125	1.406101637067319	-0.8351261257655644	-0.8351261257655634	-0.08315060329759213	-0.03865793046179779	-0.0162166296006928	0.3776823947960133	1.208495741303139e-08	6.897094540011635e-07	-1.82008904722526e-07	8.677132774521851e-08	7.901159419942343e-08	1.577990084537921e-07	9.478077706445798e-08
1.51	-0.3529015132792685	-0.04172840181847776	0.8049533718702653	1.036253602716113	-0.3045078203031478	-0.0890814739678073	-0.3184287048442775	0.5624597564571897	0.5624597564571899	-0.1708841083672114	0.1739065055811395	0.04045342601124702	-0.04153745125870619	0.5017990508010525	0.2145698380216342	0.3390964582319395	-1.774258032429005	0.06075965902936326	-0.5087774526466931	0.5917413706148938	-1.458709111840806	-1.458709111840806	0.01152491056270932	-0.002131805206265513	-0.2592282076965585	0.02598827399839748	-0.1941731539340037	0.02271421065621429	-0.02232948986089323	-0.2029714770775885	0.1325597944101372	0.03527174593467207	0.189359771375897	3.196064425094109	-19.51177727296897	6.858794525478157	-2.954438231573909	-612.8784611085505	-59.93950187805125	-34.90462220698659	0.4052017996883548	0.4728976312388415	-0.2410342271468368	-1.069441735558009	0.3667175045032641	-0.153740758571262	1.353575139192672	-0.718103898523009	-0.7181038985232912	-0.1261727286833323	-0.006211889966927734	0.00269304680528101	0.3527893233026617	1.136227533875034e-08	7.274412553855665e-07	-1.892118218334689e-07	9.00992363385869e-08	8.554620065869827e-08	1.714472494086439e-07	9.864211571424538e-08
1.52	-0.3478640632363062	-0.0395593115230837	0.8083316514684337	1.018460127765215	-0.3038817027783415	-0.09417574085564319	-0.3124442315083686	0.5478387195074046	0.5478387195074046	-0.1707750359959895	0.1738842419467403	0.03786177764740456	-0.04125970251864081	0.5056245029449963	0.2192249029212761	0.3364954755788186	-1.784202387134421	0.06445345489729683	-0.5099984543710228	0.6050785681253337	-1.465302623697232	-1.465302623697233	0.01025935970038286	-0.002326208785704335	-0.2590608065705911	0.02955284413094627	-0.1880605208964421	0.02169629377066782	-0.02228298191508916	-0.2015540171652698	0.1332885525020427	0.03452174257944274	0.1844264285397118	3.566927964092745	-19.33944963230615	6.93236717657377	-3.016559774648031	-610.0611518550623	-60.21804384545672	-35.54795077619521	0.35715911002016	0.4576829227414597	-0.2790661597460079	-0.9148053007201307	0.37795554799306	-0.08227288228372885	1.316427507210749	-0.6005018330585796	-0.6005018330583137	-0.1184859617243662	-0.04444942121054739	0.0326240694236163	0.3665703934866513	9.745049456317277e-09	7.610954649198044e-07	-1.924679410660914e-07	9.320435560028804e-08	9.214874520077634e-08	1.832039699617873e-07	1.014360355149999e-07
1.53	-0.3427903410950114	-0.0373444206091871	0.8116820345792889	1.000574340221813	-0.3032188726991165	-0.09928031541362689	-0.3063288163102685	0.5331577960923033	0.533157796092303	-0.1706790501701707	0.173860196670065	0.03527309386951377	-0.04094646138348632	0.5090514533051133	0.223724003097887	0.333519542767142	-1.792703368055589	0.06811391599530787	-0.5108730387245921	0.6179133705690714	-1.470664179626905	-1.470664179626907	0.008954501602611393	-0.002463543836202803	-0.2586265273942659	0.03310100787746353	-0.1818168125431865	0.02055512118209546	-0.0222702361443136	-0.2001493980162337	0.1340624885009204	0.03369584741368255	0.1793576753469836	3.953094754523679	-19.13771006447122	7.002242644270475	-3.066755362807529	-607.1865438626909	-60.46658885422824	-36.16234863796495	0.3251959124811407	0.4416515727706306	-0.3160769362796667	-0.7799766728645724	0.3602176580439738	-0.08342828562884468	1.253341474116491	-0.4713213153819856	-0.4713213153820961	-0.1338583811542453	0.004591759995121153	0.05624940788760673	0.3496791648372107	7.177370777722692e-09	7.904172331132417e-07	-1.915305875529984e-07	9.607276119709274e-08	9.88234739558328e-08	1.929509500881156e-07	1.03095822788657e-07
1.54	-0.3376844028674207	-0.03508541309199442	0.8150008143431471	0.9826110964321895	-0.3025194127554437	-0.1043923112298931	-0.3000877861154988	0.5184297893494131	0.5184297893494125	-0.1705955874547996	0.1738353715042777	0.03269023679661637	-0.04059759065094609	0.5120677202041767	0.2280482235804905	0.3301748061794197	-1.799693636378735	0.07177942778687288	-0.5114827060275697	0.6302015674592584	-1.474719289254986	-1.474719289254988	0.007754737610811051	-0.002482186608118212	-0.2578954655719147	0.03667876360809866	-0.175573104189931	0.0194139485935232	-0.0222574903735387	-0.1987447788671974	0.1348364244997982	0.03286995224792254	0.1742889221542555	4.330703463709509	-18.93579022592337	7.073595085292666	-3.102987635559881	-604.4462081807415	-60.75525923484565	-36.74534326807574	0.2750224178093985	0.4227069839399735	-0.3528269149551124	-0.6126627811156347	0.3789656867038506	-0.02928947216500864	1.207106396500657	-0.3392125727396865	-0.339212572739686	-0.09746714053014142	-0.02071096549409949	0.09198059862883882	0.3724887903102246	8.760981714160894e-09	8.112415271605769e-07	-2.051196130448904e-07	9.414481515506768e-08	1.10525962927854e-07	2.024292639937474e-07	1.060628833587764e-07
